Coordinates
version=1
nRows=7
nColumns=40
inDegrees=yes

Units are S.I. units (second, meters, Newtons, ...)
Angles are in degrees.

endheader
time	pelvis_tilt	pelvis_list	pelvis_rotation	pelvis_tx	pelvis_ty	pelvis_tz	hip_flexion_r	hip_adduction_r	hip_rotation_r	knee_angle_r	knee_angle_r_beta	ankle_angle_r	subtalar_angle_r	mtp_angle_r	hip_flexion_l	hip_adduction_l	hip_rotation_l	knee_angle_l	knee_angle_l_beta	ankle_angle_l	subtalar_angle_l	mtp_angle_l	lumbar_extension	lumbar_bending	lumbar_rotation	arm_flex_r	arm_add_r	arm_rot_r	elbow_flex_r	pro_sup_r	wrist_flex_r	wrist_dev_r	arm_flex_l	arm_add_l	arm_rot_l	elbow_flex_l	pro_sup_l	wrist_flex_l	wrist_dev_l
     56.15250000	     -5.64613509	     -5.86660918	      1.09077940	      1.06188551	      0.91659029	      0.48180346	     -1.57428551	     -0.21522539	    -13.45373990	     22.54810919	     22.54810919	     16.07170470	      5.86347143	    -10.59364707	     30.76211297	     -7.39171940	      0.65985309	     28.44461115	     28.44461115	      7.18419331	    -16.11694931	      8.13520844	     -9.16042110	      6.35533910	      4.88271436	     31.67573287	    -18.85104150	      0.40628596	    116.62326031	     44.03644565	      0.00000000	      0.00000000	    -16.15535424	    -11.10128660	      5.65369595	     35.06833033	     44.97883615	      0.00000000	      0.00000000
     56.16457143	     -5.67137275	     -5.78878405	      1.01032858	      1.06206963	      0.91802681	      0.47885734	     -0.56519281	     -0.88252864	    -13.07530663	     25.14366566	     25.14366566	     13.74626739	      4.16841617	    -14.94942902	     30.00802120	     -7.18947756	      0.40587515	     28.25285328	     28.25285328	      7.68146876	    -16.03200038	      7.75381760	     -9.07611932	      6.25072431	      4.52403286	     30.05776577	    -18.94005551	      0.82514796	    114.86047243	     44.13107538	      0.00000000	      0.00000000	    -15.47609619	    -11.32380444	      6.10172748	     35.97692605	     45.00040095	      0.00000000	      0.00000000
     56.17664286	     -5.72974937	     -5.68230134	      0.90438348	      1.06208701	      0.91940253	      0.47595230	      0.88212093	     -1.71183887	    -12.80739530	     28.56364966	     28.56364966	     12.36974841	      3.05833017	    -15.94593781	     29.23222274	     -6.96915558	      0.08753725	     27.94855145	     27.94855145	      8.16796709	    -15.85472607	      7.52107874	     -9.00609355	      6.10529598	      4.45225047	     28.06414587	    -19.20670295	      0.84816146	    113.44067131	     44.17497646	      0.00000000	      0.00000000	    -14.47525934	    -11.45781849	      5.97573055	     36.74912822	     45.04178139	      0.00000000	      0.00000000
     56.18871429	     -5.74089397	     -5.65147189	      0.80265310	      1.06187812	      0.92068132	      0.47330270	      2.38023339	     -2.32051313	    -12.20111211	     31.86500105	     31.86500105	      9.51869053	      0.51191938	    -19.96547369	     28.44691793	     -6.84589489	     -0.20460519	     27.65886493	     27.65886493	      8.47424936	    -15.71185500	      6.97727142	     -9.01231934	      6.00081495	      4.30486402	     26.10520234	    -18.99412315	      0.23479447	    111.41389261	     44.30137213	      0.00000000	      0.00000000	    -13.89662010	    -11.85104125	      6.00483989	     38.92510395	     45.11992573	      0.00000000	      0.00000000
     56.20078571	     -5.77049996	     -5.51313621	      0.67258798	      1.06146932	      0.92178371	      0.47065677	      4.27757721	     -3.17020487	    -11.74946766	     35.90828088	     35.90828088	      7.69203744	     -1.12343758	    -20.34929896	     27.65934292	     -6.63125639	     -0.60769557	     27.33042153	     27.33042153	      8.89161018	    -15.43093477	      6.73454686	     -9.03161618	      5.82879097	      4.21440941	     24.15797641	    -19.13676553	      0.32539949	    109.58753990	     44.35365808	      0.00000000	      0.00000000	    -12.71471544	    -12.04099253	      5.89053332	     39.81888592	     45.16104912	      0.00000000	      0.00000000
     56.21285714	     -5.77509849	     -5.52165073	      0.54348158	      1.06083802	      0.92271211	      0.46833261	      6.29021843	     -3.65323142	    -10.95283716	     39.95215116	     39.95215116	      5.47397785	     -3.72962834	    -20.55110569	     26.95570368	     -6.60226307	     -0.96678952	     27.14289112	     27.14289112	      9.25535821	    -15.13379033	      6.27277451	     -9.05885234	      5.77730265	      4.10804323	     22.35693644	    -18.87353987	     -0.19809672	    106.73582677	     44.46624933	      0.00000000	      0.00000000	    -11.79642550	    -12.43108025	      5.87847707	     41.73108119	     45.20651285	      0.00000000	      0.00000000
     56.22492857	     -5.77614791	     -5.42512031	      0.38897244	      1.05997951	      0.92344040	      0.46609927	      8.46473093	     -4.27580933	    -10.29738524	     44.13637173	     44.13637173	      3.39749758	     -5.94536423	    -19.97224426	     26.25611363	     -6.49491359	     -1.44271605	     26.95968311	     26.95968311	      9.60832069	    -14.71346882	      5.76739521	     -9.13811080	      5.61149681	      3.92882167	     20.66366932	    -18.55880878	     -0.45486559	    104.00224542	     44.56524449	      0.00000000	      0.00000000	    -10.86287448	    -12.87555407	      5.94383306	     43.74347091	     45.24707477	      0.00000000	      0.00000000
